<?xml version="1.0" standalone="no"?>
<!DOCTYPE svg PUBLIC "-//W3C//DTD SVG 20010904//EN"
 "http://www.w3.org/TR/2001/REC-SVG-20010904/DTD/svg10.dtd">
<svg version="1.0" xmlns="http://www.w3.org/2000/svg"
 width="449.000000pt" height="573.000000pt" viewBox="0 0 449.000000 573.000000"
 preserveAspectRatio="xMidYMid meet">

<g transform="translate(0.000000,573.000000) scale(0.100000,-0.100000)"
fill="#000000" stroke="none">
<path d="M2007 5658 c-4 -40 -10 -135 -13 -210 l-7 -138 -38 -40 c-21 -22 -45
-40 -54 -40 -8 0 -20 -12 -26 -27 -5 -14 -21 -36 -35 -48 -24 -20 -84 -167
-84 -205 0 -9 -13 -50 -30 -90 -21 -51 -30 -90 -30 -129 0 -31 -5 -87 -11
-126 -6 -38 -11 -78 -11 -88 1 -9 -9 -39 -20 -65 -12 -26 -22 -60 -22 -77 -1
-27 -4 -30 -31 -28 -67 5 -110 13 -142 28 -18 9 -61 21 -96 26 -34 6 -71 14
-82 19 -53 22 -107 40 -120 40 -28 0 -15 -18 18 -25 40 -8 111 -32 134 -44 31
-16 86 -38 153 -61 36 -12 74 -26 85 -31 11 -5 30 -11 42 -13 12 -3 33 -12 48
-22 14 -9 28 -14 31 -11 3 3 9 33 14 67 5 34 16 72 24 85 13 20 13 25 1 35
-11 9 -15 9 -15 1 0 -6 -4 -11 -9 -11 -4 0 -7 10 -6 23 1 12 3 28 4 35 2 18
19 15 24 -5 3 -13 7 -10 17 15 6 17 16 32 21 32 5 0 9 7 9 15 0 41 76 237 104
269 92 105 122 136 129 136 9 0 54 47 66 67 4 7 34 22 66 34 33 11 66 26 73
32 10 8 15 8 21 -1 10 -16 103 -82 116 -82 6 0 25 -15 42 -32 101 -104 139
-139 158 -144 38 -10 65 -27 65 -41 0 -7 5 -13 10 -13 6 0 10 -6 10 -14 0 -7
6 -19 13 -25 8 -6 20 -30 27 -53 8 -24 29 -62 47 -85 23 -29 33 -52 33 -76 0
-19 6 -40 14 -46 7 -6 11 -22 8 -36 -3 -18 0 -25 12 -25 9 0 17 -7 17 -15 2
-24 4 -29 12 -43 5 -7 2 -19 -8 -29 -16 -16 -18 -15 -27 1 -8 14 -13 15 -24 5
-11 -9 -12 -15 -3 -25 6 -8 7 -14 2 -14 -5 0 -16 11 -23 25 -8 15 -22 25 -36
25 -31 0 -40 18 -12 22 13 2 21 7 20 12 -2 5 2 12 9 17 8 4 10 11 7 14 -4 4
-12 3 -19 -1 -7 -4 -24 -9 -37 -10 -17 -2 -22 2 -20 14 2 9 10 17 18 17 8 0
16 5 17 10 2 6 -11 9 -27 9 -19 -1 -30 3 -30 12 0 19 -72 36 -155 38 -63 1
-70 -1 -70 -18 0 -11 -6 -21 -12 -23 -10 -4 -10 -10 -2 -24 13 -25 4 -39 -25
-39 -13 0 -29 -7 -36 -15 -7 -8 -18 -15 -25 -15 -17 0 -26 -39 -14 -61 16 -30
41 -12 33 24 -4 20 -3 27 5 23 6 -4 11 -20 11 -36 0 -36 84 -150 111 -150 10
0 19 7 19 15 0 11 11 15 40 15 49 0 87 17 93 41 4 16 15 19 76 19 39 0 71 -4
71 -9 0 -6 16 -7 35 -4 l35 6 0 -59 c0 -34 -7 -72 -16 -89 -26 -51 -47 -155
-33 -171 9 -11 8 -15 -5 -20 -25 -10 -8 -24 30 -24 35 0 46 13 19 24 -23 8
-18 25 11 36 14 6 34 20 45 33 22 26 25 15 5 -21 -8 -15 -17 -39 -20 -53 -6
-29 -42 -79 -57 -79 -5 0 -19 10 -31 22 l-21 21 -19 -23 c-10 -12 -18 -33 -18
-46 0 -14 -7 -27 -17 -31 -28 -11 -45 -32 -40 -48 6 -15 -16 -39 -26 -29 -3 4
-2 15 4 25 7 15 6 19 -6 19 -14 0 -18 -12 -17 -55 0 -20 -14 -35 -33 -35 -5 0
-3 4 5 10 25 16 3 22 -34 9 -29 -10 -38 -10 -52 2 -45 37 -48 118 -3 104 11
-4 19 -2 19 4 0 13 67 15 74 2 3 -5 15 -7 26 -4 14 4 20 14 20 34 0 16 7 32
17 38 29 16 6 25 -70 29 -70 4 -73 6 -109 46 -21 22 -38 45 -38 49 0 13 -64
107 -72 107 -20 0 -5 -63 27 -111 45 -68 46 -103 4 -125 -18 -9 -34 -12 -38
-7 -14 19 -115 63 -147 63 -19 0 -43 5 -53 12 -15 9 -34 9 -83 0 -81 -15 -118
-32 -118 -55 0 -17 6 -18 63 -12 36 4 73 2 89 -4 15 -6 58 -13 95 -17 40 -3
79 -13 93 -24 14 -9 40 -21 57 -24 30 -7 31 -9 26 -44 -3 -20 -7 -38 -8 -40
-6 -7 -65 29 -65 38 0 6 -8 10 -17 10 -14 1 -12 4 7 15 28 16 28 16 -60 20
-112 5 -164 11 -184 20 -15 7 -17 5 -12 -11 7 -22 -1 -34 -32 -52 -18 -10 -27
-10 -38 -1 -11 9 -14 7 -14 -10 0 -15 5 -22 18 -20 9 1 45 -6 79 -17 61 -18
79 -36 48 -48 -21 -8 -19 -31 5 -47 12 -9 17 -19 12 -26 -6 -9 -17 -9 -47 2
-28 9 -44 10 -53 3 -7 -6 -29 -8 -52 -4 -82 13 -197 167 -215 288 -6 38 -11
47 -32 53 -33 8 -39 1 -25 -30 6 -13 7 -27 2 -30 -11 -7 -37 45 -45 94 -7 42
-31 73 -43 55 -14 -21 -42 -23 -71 -6 -30 17 -37 48 -17 81 4 7 5 15 2 18 -3
3 -8 -2 -12 -11 -7 -19 -21 -21 -38 -3 -12 11 -36 51 -36 59 0 9 61 1 72 -9
18 -19 68 -17 68 3 0 12 6 15 23 10 12 -3 25 -6 30 -6 4 0 7 -13 7 -29 0 -16
7 -34 15 -41 9 -8 14 -29 14 -60 -2 -64 8 -80 32 -49 10 13 19 31 19 40 0 46
-79 169 -110 169 -5 0 -10 5 -10 12 0 9 -3 9 -12 0 -18 -18 -23 -15 -37 21
-11 28 -19 34 -43 34 -21 0 -37 9 -53 29 -26 31 -28 29 -29 -26 -1 -34 -2 -35
-39 -32 -25 3 -43 -1 -50 -11 -8 -10 -19 -12 -31 -8 -17 7 -15 9 15 20 26 9
31 14 19 21 -8 5 -19 6 -25 3 -5 -3 -4 0 3 8 9 10 15 10 24 1 7 -7 21 -12 32
-12 19 0 19 1 4 16 -9 9 -28 18 -42 19 -34 4 -48 14 -42 31 3 7 1 16 -4 19 -6
4 -10 1 -10 -6 0 -8 -11 -9 -36 -4 -28 5 -35 3 -32 -7 3 -7 17 -14 31 -16 15
-2 27 -7 27 -11 0 -9 -46 -8 -56 2 -4 4 -26 7 -48 7 -50 1 -76 17 -76 48 0 4
-4 1 -8 -5 -6 -10 -22 -10 -66 -3 -66 11 -77 17 -56 30 10 7 -7 10 -52 10 -52
0 -68 3 -68 14 0 8 -14 19 -31 25 -39 14 -59 14 -39 1 12 -8 9 -10 -12 -10
-16 0 -28 -5 -28 -10 0 -6 -12 -16 -27 -23 -16 -6 -37 -20 -47 -29 -19 -18
-19 -18 8 -18 15 0 25 -4 22 -9 -6 -10 -56 -2 -56 9 0 11 -59 10 -66 -2 -4 -6
1 -8 16 -3 15 5 20 4 16 -4 -5 -7 -1 -9 8 -5 10 4 16 1 16 -8 0 -8 11 -21 25
-28 14 -7 25 -19 25 -26 0 -7 2 -18 3 -26 2 -7 2 -10 0 -5 -3 4 -13 7 -22 7
-10 0 -31 12 -47 28 -36 33 -84 65 -84 55 0 -5 14 -17 30 -28 16 -11 30 -25
30 -32 0 -6 10 -15 23 -19 12 -3 33 -14 47 -23 25 -17 60 -17 60 -1 0 5 -5 21
-12 35 -9 21 -9 29 4 41 13 13 27 14 99 4 46 -6 90 -15 99 -20 8 -4 34 -6 58
-3 27 3 42 1 42 -6 0 -6 9 -11 19 -11 11 0 23 -5 26 -10 4 -6 29 -8 62 -5 59
6 133 -9 133 -26 0 -6 7 -8 16 -5 9 3 27 -3 42 -15 22 -17 23 -20 6 -15 -27 8
-64 -18 -47 -34 15 -16 34 -4 26 17 -4 11 -2 14 8 11 8 -3 13 -12 11 -22 -2
-9 1 -16 7 -16 17 0 17 -34 0 -53 -14 -15 -26 -17 -76 -12 -39 5 -68 3 -82 -4
-33 -18 -118 -19 -135 -1 -11 10 -30 14 -61 12 -48 -4 -57 -15 -25 -32 38 -20
23 -33 -32 -28 -29 3 -47 3 -40 1 20 -8 14 -29 -14 -43 -22 -12 -29 -12 -61 6
-20 10 -42 25 -50 32 -14 14 -37 7 -28 -9 9 -14 -16 -10 -45 6 -29 17 -54 19
-45 5 3 -6 -4 -10 -18 -10 -14 0 -41 15 -63 36 -22 19 -57 44 -79 54 -34 17
-50 26 -85 48 -2 2 2 7 10 12 11 7 1 10 -31 10 -26 0 -61 3 -78 6 -27 6 -31
10 -31 41 0 37 15 73 30 73 6 0 10 -7 10 -15 0 -20 27 -19 38 0 5 10 15 13 25
9 18 -7 23 -24 7 -24 -5 0 -10 -7 -10 -15 0 -8 5 -15 10 -15 6 0 10 7 10 15 0
8 7 15 15 15 8 0 15 9 15 20 0 11 -7 20 -15 20 -9 0 -15 9 -15 24 0 13 -7 27
-17 30 -15 6 -14 8 3 25 11 10 35 18 53 19 35 1 71 32 71 62 0 9 -11 23 -25
30 -15 8 -21 16 -14 20 6 4 -16 10 -47 13 -61 6 -78 2 -54 -14 13 -8 13 -10 0
-19 -20 -13 -50 -13 -50 0 0 6 -13 10 -30 10 -16 0 -30 -4 -30 -10 0 -5 -4
-10 -10 -10 -5 0 -10 9 -10 19 0 26 -23 32 -96 25 -50 -5 -64 -10 -64 -23 0
-10 5 -22 12 -29 9 -9 9 -15 0 -24 -9 -9 -12 -68 -12 -204 l0 -192 153 -36
c319 -74 373 -85 417 -90 57 -5 90 -13 165 -38 72 -24 94 -41 45 -33 l-35 5
35 -16 c49 -23 626 -222 835 -288 66 -20 88 -23 120 -16 22 5 57 10 78 10 45
0 77 15 77 35 0 8 5 15 10 15 6 0 10 -7 10 -15 0 -8 4 -15 8 -15 5 0 23 -12
41 -27 19 -16 37 -29 42 -29 5 -1 13 -2 17 -3 5 0 9 -16 10 -33 0 -22 9 -40
26 -55 14 -12 26 -27 26 -33 0 -5 9 -10 19 -10 17 0 18 -4 10 -37 -4 -21 -13
-39 -18 -41 -6 -2 -11 -10 -11 -18 0 -8 -6 -23 -12 -34 -11 -17 -10 -22 0 -29
10 -6 7 -10 -12 -15 -30 -8 -33 -26 -8 -49 28 -26 247 -29 282 -4 13 9 32 17
42 17 25 0 89 40 82 52 -3 5 2 15 12 23 27 19 12 28 -56 33 -33 2 -60 8 -60
13 0 5 -7 9 -15 9 -8 0 -15 7 -15 15 0 8 -9 15 -19 15 -29 0 -35 17 -11 30 11
6 48 19 82 30 35 11 76 32 92 46 l30 26 -25 19 c-13 10 -19 19 -13 19 5 0 19
8 30 18 11 9 29 22 40 28 10 6 25 22 31 35 l13 24 1 -25 c1 -14 1 -32 0 -40
-7 -63 -5 -187 2 -198 6 -7 7 -15 3 -19 -3 -3 13 -17 36 -30 56 -32 119 -24
149 18 26 38 73 62 102 53 32 -9 109 -45 129 -59 16 -10 12 -16 -35 -47 -52
-36 -60 -39 -317 -93 l-75 -16 -34 -75 c-19 -41 -39 -73 -45 -71 -6 3 -19 -2
-28 -11 -25 -21 -22 -4 11 74 16 38 29 70 28 71 -1 1 -34 -2 -72 -7 -39 -5
-110 -14 -160 -21 -103 -13 -309 -62 -351 -84 -16 -8 -69 -27 -117 -42 l-89
-28 6 -50 c7 -57 30 -128 51 -159 19 -26 19 -36 2 -36 -18 0 -61 91 -77 160
-7 30 -16 63 -21 72 -5 9 -6 32 -2 49 10 51 -13 26 -27 -28 -31 -123 -40 -181
-40 -259 0 -61 -3 -74 -16 -74 -14 0 -15 14 -9 117 4 64 11 130 16 145 9 32
11 31 -58 28 -63 -2 -60 -18 -37 190 8 80 16 197 18 260 2 63 4 118 5 121 0 4
12 10 26 13 38 10 31 28 -7 21 -32 -6 -140 28 -383 119 -73 28 -444 151 -505
168 -19 6 -87 27 -150 48 -94 31 -283 78 -468 115 l-32 7 2 -199 3 -198 55
-11 c30 -5 54 -14 52 -19 -7 -17 95 -55 190 -70 44 -8 183 -44 233 -61 28 -9
70 -20 95 -24 84 -15 192 -52 190 -65 -1 -4 9 -15 23 -24 27 -18 25 -38 -6
-62 -19 -15 -24 -15 -76 2 -387 126 -708 219 -753 219 -5 0 -8 -500 -8 -1111
0 -840 3 -1110 12 -1107 6 2 20 44 30 93 20 96 84 293 125 383 50 110 113 246
117 249 3 4 124 -46 172 -71 49 -25 55 -38 39 -70 -8 -16 -15 -32 -15 -36 0
-4 -18 -38 -40 -74 -22 -36 -40 -74 -40 -85 0 -11 -5 -21 -12 -23 -9 -3 -9
-26 -1 -93 7 -57 8 -98 2 -114 -6 -14 -6 -27 -1 -30 5 -3 12 -33 16 -66 3 -33
10 -98 15 -145 8 -78 34 -178 50 -190 10 -8 31 -70 52 -150 22 -86 27 -321 8
-395 -9 -35 -8 -49 5 -77 14 -30 24 -36 64 -44 37 -7 48 -14 50 -30 2 -12 12
-24 24 -27 15 -4 19 -10 13 -24 -18 -44 -16 -50 38 -92 31 -23 58 -49 61 -57
9 -24 25 -16 34 19 8 30 11 32 53 30 31 -2 49 -8 62 -24 9 -12 17 -18 17 -14
0 5 9 0 20 -10 11 -10 17 -22 14 -26 -3 -5 554 -8 1283 -7 l1288 3 3 23 c2 12
-1 22 -7 22 -6 0 -11 -4 -11 -10 0 -5 -9 -14 -21 -20 -17 -10 -21 -8 -26 9 -3
12 -9 21 -13 21 -11 0 -34 68 -59 175 -18 76 -51 172 -91 260 -32 70 -56 244
-45 327 6 46 13 59 54 98 60 59 127 94 226 119 185 48 284 46 360 -7 70 -49
84 -103 111 -422 15 -195 21 -491 11 -562 l-6 -38 225 0 225 0 -3 123 -3 122
-55 5 c-38 3 -49 7 -37 12 10 5 29 5 42 2 13 -3 31 -1 41 4 12 7 -20 11 -107
14 -72 3 -127 1 -130 -5 -4 -5 -19 -6 -35 -3 -18 4 -40 0 -58 -9 -35 -18 -46
-19 -46 -2 0 14 35 47 50 47 6 0 10 3 10 8 0 21 191 71 273 72 l57 0 0 1233 0
1233 -292 38 c-357 47 -378 50 -389 67 -5 8 -9 41 -10 74 l-1 60 -11 -42 c-7
-23 -14 -44 -17 -46 -8 -9 -5 167 3 181 5 6 4 12 -1 12 -6 0 -13 12 -17 28
l-7 27 -15 -22 c-17 -26 -63 -32 -63 -8 0 8 5 26 12 40 11 24 16 26 48 21 48
-7 59 2 48 42 -10 38 -24 41 -40 7 -10 -23 -37 -33 -50 -19 -4 3 -2 20 3 37 6
18 14 68 20 112 27 218 41 338 49 425 5 52 16 140 24 195 9 61 11 104 6 109
-6 5 -11 8 -13 5 -10 -14 -48 -110 -55 -139 -6 -25 -14 -36 -30 -38 -15 -2
-22 2 -22 12 0 20 -12 22 -210 36 -232 16 -239 17 -297 25 -30 4 -50 12 -47
17 4 5 23 7 43 3 l36 -6 -27 24 c-20 17 -45 26 -89 30 -33 4 -65 9 -70 13 -12
7 -12 41 1 49 13 8 484 -14 540 -25 68 -14 170 -21 170 -12 0 4 -5 13 -12 20
-9 9 -9 12 3 12 7 0 23 13 34 30 23 34 60 50 118 50 33 0 46 -6 73 -36 33 -34
43 -67 26 -78 -5 -3 -14 -65 -21 -138 -11 -124 -17 -158 -42 -263 -5 -22 -11
-88 -13 -147 -3 -91 -7 -111 -25 -134 -27 -34 -27 -57 -1 -25 11 13 20 19 20
13 0 -5 46 -13 103 -17 56 -4 192 -17 302 -29 l200 -22 3 931 c3 910 0 1093
-19 1064 -7 -11 -11 -11 -17 -1 -6 8 -9 1 -9 -20 -1 -43 -13 -89 -28 -108 -6
-8 -12 -33 -13 -55 -4 -76 -11 -93 -42 -100 -23 -5 -34 -18 -56 -66 -25 -54
-44 -75 -44 -49 0 6 -4 10 -10 10 -5 0 -10 -8 -10 -17 0 -10 -9 -33 -20 -50
-22 -37 -67 -46 -76 -15 -3 9 -10 25 -15 34 -13 26 -11 61 7 103 8 21 12 41 7
46 -4 4 -44 15 -88 24 -44 9 -81 17 -82 19 -2 2 3 9 11 15 12 10 13 16 3 32
-16 26 3 39 57 39 37 0 38 1 31 28 -4 15 -8 36 -10 47 -1 11 -3 22 -4 25 0 3
-12 6 -26 6 -13 1 -38 12 -55 25 -27 21 -30 29 -26 67 2 23 0 42 -5 42 -5 0
-9 7 -9 16 0 13 -3 14 -14 5 -16 -14 -26 2 -18 32 5 20 19 23 25 5 2 -7 3 -5
2 4 -2 10 1 21 6 24 13 7 11 64 -2 64 -5 0 -7 -4 -4 -10 3 -5 2 -17 -3 -26
-13 -23 -26 0 -18 32 5 19 11 24 23 20 19 -8 33 10 33 42 l0 22 -224 0 c-170
0 -225 -3 -229 -12 -3 -10 -9 -10 -26 0 -11 6 -33 12 -48 11 l-28 0 30 -22
c44 -33 90 -79 110 -109 9 -16 23 -28 30 -28 7 0 15 -7 19 -15 6 -17 -5 -20
-20 -5 -6 6 -30 12 -54 14 -37 4 -49 11 -78 45 -18 23 -39 41 -45 41 -7 0 -23
18 -36 40 l-25 40 -92 -1 -93 -1 -5 -36 c-3 -20 -15 -136 -26 -257 -20 -221
-56 -552 -66 -612 -4 -25 -9 -31 -22 -26 -31 11 -52 36 -52 62 0 14 -9 39 -19
55 -15 23 -18 41 -15 87 5 55 4 58 -26 75 -16 10 -30 22 -30 26 0 4 -7 8 -16
8 -15 0 -16 14 -10 133 4 72 14 194 22 271 16 156 18 216 6 216 -4 0 -16 -116
-26 -257 -11 -142 -25 -276 -31 -298 -12 -38 -13 -39 -14 -10 -1 17 6 118 14
225 8 107 17 229 19 270 4 66 3 69 -4 25 -5 -27 -16 -144 -25 -260 -25 -322
-24 -319 -79 -286 -20 12 -45 36 -57 52 -12 17 -29 29 -43 29 -12 0 -31 7 -42
15 -10 8 -31 15 -45 15 -46 0 -50 15 -44 181 2 85 7 187 11 227 l6 72 -264 0
-265 0 -6 -72z m1263 27 c11 -30 26 -32 35 -5 8 27 29 25 44 -3 7 -12 22 -27
34 -32 29 -13 33 -48 10 -79 -22 -31 -33 -32 -63 -6 -13 11 -26 20 -31 20 -4
0 -18 21 -31 48 -23 47 -23 47 -26 17 -5 -43 -22 -56 -22 -17 0 34 18 82 32
82 5 0 13 -11 18 -25z m1207 -397 c-3 -8 -6 -5 -6 6 -1 11 2 17 5 13 3 -3 4
-12 1 -19z m-736 -55 c0 -27 4 -70 9 -98 l7 -50 3 40 c1 22 2 46 1 53 -3 21
32 72 50 72 9 0 19 7 23 15 3 8 12 15 20 15 18 0 29 -27 13 -33 -8 -3 -7 -10
5 -23 17 -17 18 -17 38 1 11 10 20 16 20 12 0 -3 3 -13 6 -21 5 -12 1 -16 -17
-14 -15 2 -24 -3 -27 -14 -2 -10 2 -18 9 -18 20 0 47 -40 54 -81 9 -55 -12
-79 -71 -79 -24 0 -45 -4 -48 -9 -3 -5 -22 -9 -41 -8 -29 1 -35 5 -35 23 0 13
-4 26 -10 29 -5 3 -10 -3 -10 -14 0 -16 -6 -21 -26 -21 -27 0 -27 0 -20 58 4
31 9 86 12 122 7 77 10 90 24 90 5 0 10 -21 11 -47z m294 -221 c-8 -9 -25 20
-18 31 3 5 10 2 15 -7 6 -10 7 -20 3 -24z m57 -29 c14 -17 -3 -16 -27 1 -17
12 -18 16 -5 31 14 17 15 17 19 -1 2 -10 8 -25 13 -31z m-1032 -247 c0 -8 -4
-18 -10 -21 -5 -3 -10 3 -10 14 0 12 5 21 10 21 6 0 10 -6 10 -14z m-27 -252
c0 -16 -5 -67 -9 -113 -10 -113 -24 -76 -19 51 4 109 2 101 18 95 6 -2 11 -17
10 -33z m-583 -14 c0 -5 -4 -10 -10 -10 -5 0 -10 5 -10 10 0 6 5 10 10 10 6 0
10 -4 10 -10z m-2385 -70 c3 -5 17 -10 30 -10 34 0 41 -18 17 -43 -20 -19 -22
-19 -46 -3 -16 10 -26 26 -26 41 0 25 14 33 25 15z m2480 -30 c3 -5 -1 -10 -9
-10 -8 0 -18 5 -21 10 -3 6 1 10 9 10 8 0 18 -4 21 -10z m-129 -57 c-10 -10
-19 5 -10 18 6 11 8 11 12 0 2 -7 1 -15 -2 -18z m1608 -38 c-5 -12 -10 -13
-20 -4 -19 15 -18 19 6 19 13 0 18 -5 14 -15z m-344 -55 c0 -5 -7 -10 -16 -10
-8 0 -12 5 -9 10 3 6 10 10 16 10 5 0 9 -4 9 -10z m-3520 -26 c0 -8 -4 -12
-10 -9 -5 3 -10 10 -10 16 0 5 5 9 10 9 6 0 10 -7 10 -16z m1300 7 c0 -6 -4
-13 -10 -16 -5 -3 -10 1 -10 9 0 9 5 16 10 16 6 0 10 -4 10 -9z m-1180 -101
c12 -8 9 -10 -12 -10 -16 0 -28 5 -28 10 0 13 20 13 40 0z m2935 -41 c11 -16
-1 -22 -30 -15 -14 4 -23 11 -20 16 8 13 42 13 50 -1z m-2844 -19 c5 0 9 -7 9
-15 0 -21 -14 -19 -36 7 -18 20 -18 21 -1 15 10 -4 23 -7 28 -7z m769 -24 c0
-3 -4 -8 -10 -11 -5 -3 -10 -1 -10 4 0 6 5 11 10 11 6 0 10 -2 10 -4z m-1073
-122 c-3 -3 -12 -4 -19 -1 -8 3 -5 6 6 6 11 1 17 -2 13 -5z m253 -60 l35 -14
-40 7 c-22 3 -53 11 -70 19 l-30 13 35 -6 c19 -4 51 -12 70 -19z m-122 -17
c-66 -16 -118 -67 -118 -114 0 -44 30 -134 50 -150 30 -25 76 -34 106 -22 16
6 23 13 16 16 -6 3 -10 8 -7 13 3 4 -2 7 -11 6 -43 -3 -52 140 -11 176 17 15
23 16 46 4 14 -7 32 -11 39 -9 6 3 12 0 12 -6 0 -6 6 -11 14 -11 7 0 20 -10
29 -22 18 -27 34 -18 16 9 -20 31 -70 67 -78 55 -4 -7 -13 -5 -26 5 -19 15
-19 15 5 8 l25 -6 -29 26 -28 26 28 -7 c45 -12 126 -61 150 -93 7 -8 16 -11
24 -6 10 6 12 4 7 -9 -5 -14 -3 -17 8 -12 8 3 15 1 15 -4 0 -6 11 -10 24 -10
24 0 51 -22 40 -33 -3 -3 4 -3 16 0 15 4 18 9 11 16 -43 43 59 50 144 11 28
-13 43 -24 35 -24 -8 -1 14 -8 49 -16 36 -7 76 -11 90 -9 21 4 22 4 7 -3 -17
-7 -17 -9 -3 -15 9 -3 31 -3 50 0 20 3 37 1 41 -6 4 -6 0 -11 -9 -11 -12 0
-15 -5 -11 -16 3 -9 6 -24 6 -35 0 -29 38 -24 50 6 5 14 15 25 21 25 19 0 76
-69 74 -91 -1 -19 -35 -50 -35 -33 0 3 -7 1 -15 -6 -13 -10 -15 -9 -16 11 -1
20 -2 19 -8 -6 -5 -26 -10 -30 -34 -27 -33 4 -87 -18 -87 -35 0 -25 -23 -24
-49 1 -15 14 -32 26 -38 26 -6 0 -13 3 -16 8 -2 4 -2 1 -1 -5 2 -7 -3 -13 -11
-13 -23 0 -18 -16 11 -35 22 -14 28 -15 36 -4 7 11 8 9 4 -4 -7 -20 8 -39 39
-51 18 -7 18 -8 3 -17 -12 -7 -32 0 -77 27 -33 20 -65 42 -72 50 -6 8 -21 14
-33 14 -12 0 -32 7 -44 16 -12 8 -27 12 -32 9 -6 -3 -22 3 -36 14 -15 12 -35
21 -46 21 -10 0 -35 9 -56 19 -40 21 -42 21 -74 21 -16 0 -19 3 -10 8 13 9 8
35 -10 59 -8 10 -15 9 -32 -2 -12 -8 -36 -16 -52 -17 -16 -1 -36 -7 -44 -14
-8 -7 -44 -14 -80 -16 -64 -3 -65 -3 -102 37 -70 74 -78 143 -25 237 24 43 52
56 122 56 l50 0 -47 -11z m512 -97 l25 -8 -25 0 c-14 0 -36 4 -50 8 l-25 8 25
0 c14 0 36 -4 50 -8z m77 -26 c-3 -3 -12 -4 -19 -1 -8 3 -5 6 6 6 11 1 17 -2
13 -5z m1568 -43 c-2 -5 4 -16 15 -26 38 -35 21 -68 -49 -92 -59 -20 -146 14
-146 57 0 9 -7 14 -17 12 -10 -2 -18 1 -18 6 0 18 49 30 114 27 56 -3 68 -1
78 15 7 10 16 16 20 14 5 -3 6 -9 3 -13z m-2138 -107 c-3 -3 -12 -4 -19 -1 -8
3 -5 6 6 6 11 1 17 -2 13 -5z m1004 -60 c-3 -32 -17 -45 -38 -37 -15 6 -9 37
11 59 18 21 31 10 27 -22z m-67 -9 c-4 -8 -10 -15 -15 -15 -5 0 -9 7 -9 15 0
8 7 15 15 15 9 0 12 -6 9 -15z m-186 -85 c-7 -11 -19 -20 -27 -20 -11 0 -10 5
4 20 10 11 22 20 27 20 4 0 3 -9 -4 -20z m-123 0 c3 -5 -1 -10 -9 -10 -9 0
-16 5 -16 10 0 6 4 10 9 10 6 0 13 -4 16 -10z m1345 -96 c0 -2 -7 -4 -15 -4
-8 0 -15 4 -15 10 0 5 7 7 15 4 8 -4 15 -8 15 -10z m1412 -9 c-2 -14 -8 -25
-13 -25 -12 0 -11 7 1 31 14 26 18 24 12 -6z m-107 -61 c113 -2 110 -1 96 -18
-9 -11 -7 -15 11 -20 82 -22 -153 -29 -252 -7 -25 5 -74 12 -109 16 -67 6
-101 18 -101 37 0 8 37 9 133 3 72 -5 173 -9 222 -11z m85 -154 c0 -5 -4 -10
-10 -10 -5 0 -10 5 -10 10 0 6 5 10 10 10 6 0 10 -4 10 -10z m182 -177 c-2
-24 -8 -43 -13 -43 -11 0 -12 34 -3 80 10 45 22 16 16 -37z m5 -310 c6 -17
-36 -38 -49 -25 -17 17 -1 44 24 40 12 -2 23 -8 25 -15z m-1657 -43 c0 -12
-40 -33 -48 -25 -4 4 2 13 12 21 23 16 36 18 36 4z m1450 0 c0 -5 -7 -10 -15
-10 -8 0 -15 5 -15 10 0 6 7 10 15 10 8 0 15 -4 15 -10z m-1560 -41 c0 -14 -5
-19 -17 -17 -26 5 -29 38 -4 38 15 0 21 -6 21 -21z m527 -55 c-3 -3 -12 -4
-19 -1 -8 3 -5 6 6 6 11 1 17 -2 13 -5z m-762 -64 c0 -22 -29 -18 -33 3 -3 14
1 18 15 15 10 -2 18 -10 18 -18z m1316 -223 c-13 -13 -26 -3 -16 12 3 6 11 8
17 5 6 -4 6 -10 -1 -17z m-240 -190 c-13 -13 -26 -3 -16 12 3 6 11 8 17 5 6
-4 6 -10 -1 -17z m-11 -45 c0 -13 -12 -22 -22 -16 -10 6 -1 24 13 24 5 0 9 -4
9 -8z m820 -176 c0 -3 -4 -8 -10 -11 -5 -3 -10 -1 -10 4 0 6 5 11 10 11 6 0
10 -2 10 -4z m-2095 -756 c3 -5 -1 -10 -10 -10 -9 0 -13 5 -10 10 3 6 8 10 10
10 2 0 7 -4 10 -10z"/>
<path d="M640 3680 c0 -5 5 -10 10 -10 6 0 10 5 10 10 0 6 -4 10 -10 10 -5 0
-10 -4 -10 -10z"/>
<path d="M690 3660 c0 -5 7 -10 15 -10 8 0 15 5 15 10 0 6 -7 10 -15 10 -8 0
-15 -4 -15 -10z"/>
<path d="M880 3589 c0 -5 5 -7 10 -4 6 3 10 8 10 11 0 2 -4 4 -10 4 -5 0 -10
-5 -10 -11z"/>
<path d="M896 3550 c-15 -18 -23 -37 -19 -46 4 -12 9 -9 18 14 7 16 23 37 36
46 18 12 19 16 7 16 -9 0 -28 -14 -42 -30z"/>
<path d="M316 3553 c-6 -14 -5 -15 5 -6 7 7 10 15 7 18 -3 3 -9 -2 -12 -12z"/>
<path d="M951 3544 c0 -11 3 -14 6 -6 3 7 2 16 -1 19 -3 4 -6 -2 -5 -13z"/>
<path d="M1056 3485 c4 -8 8 -15 10 -15 2 0 4 7 4 15 0 8 -4 15 -10 15 -5 0
-7 -7 -4 -15z"/>
<path d="M0 4764 c0 -11 118 -29 128 -19 3 3 -6 5 -21 5 -14 0 -28 4 -31 9 -9
14 -76 19 -76 5z"/>
<path d="M148 4733 c6 -2 18 -2 25 0 6 3 1 5 -13 5 -14 0 -19 -2 -12 -5z"/>
<path d="M192 4725 c4 -4 54 -20 110 -36 57 -15 128 -35 158 -44 30 -9 88 -24
127 -35 40 -10 81 -23 91 -29 9 -5 87 -27 172 -50 85 -22 178 -47 205 -55 28
-9 55 -16 60 -16 10 1 -52 30 -70 34 -5 1 -14 4 -20 7 -5 4 -34 12 -62 20 -29
7 -53 16 -53 21 0 4 -7 8 -16 8 -16 0 -55 11 -209 60 -198 62 -366 106 -440
115 -33 4 -57 4 -53 0z"/>
<path d="M40 4644 c-48 -13 -46 -17 9 -14 18 1 31 -2 28 -7 -3 -5 12 -10 34
-10 27 -1 39 2 36 10 -2 6 -17 11 -33 12 -18 0 -28 5 -26 13 1 6 1 11 0 11 -2
-1 -23 -7 -48 -15z"/>
<path d="M165 4620 c3 -5 1 -10 -4 -10 -6 0 -11 -4 -11 -9 0 -5 20 -12 45 -15
25 -4 45 -11 45 -17 0 -5 24 -9 53 -9 28 0 66 -4 84 -9 25 -7 31 -6 27 4 -3 7
-18 15 -33 18 -16 3 -35 12 -42 19 -26 25 -178 51 -164 28z"/>
<path d="M1877 4593 c-45 -7 -31 -36 19 -40 50 -3 94 -19 94 -33 0 -6 -5 -8
-10 -5 -18 11 -50 -6 -50 -25 0 -25 -16 -33 -60 -32 -25 1 -43 -4 -54 -17 -16
-18 -15 -19 21 -23 31 -4 42 0 61 19 27 29 40 24 34 -15 -3 -24 -8 -28 -28
-24 -17 3 -24 0 -24 -10 0 -29 39 -66 77 -73 21 -4 46 -14 55 -22 15 -14 21
-13 55 3 22 11 39 28 41 39 2 11 9 25 15 30 22 19 17 36 -13 46 -36 13 -39 29
-6 29 16 0 26 7 30 23 14 53 9 61 -69 100 -75 37 -107 42 -188 30z"/>
<path d="M15 4550 c-4 -6 6 -10 22 -10 22 0 25 2 13 10 -19 12 -27 12 -35 0z"/>
<path d="M644 4485 c11 -8 24 -15 30 -15 5 0 1 7 -10 15 -10 8 -23 14 -29 14
-5 0 -1 -6 9 -14z"/>
<path d="M1865 4490 c-3 -5 -2 -10 4 -10 5 0 13 5 16 10 3 6 2 10 -4 10 -5 0
-13 -4 -16 -10z"/>
<path d="M2310 4491 c0 -5 11 -11 25 -13 17 -4 25 -1 25 8 0 8 -11 14 -25 14
-14 0 -25 -4 -25 -9z"/>
<path d="M563 4453 c9 -2 23 -2 30 0 6 3 -1 5 -18 5 -16 0 -22 -2 -12 -5z"/>
<path d="M627 4433 c-11 -10 -8 -20 7 -26 10 -4 12 0 9 14 -6 21 -7 22 -16 12z"/>
<path d="M2711 4414 c0 -11 3 -14 6 -6 3 7 2 16 -1 19 -3 4 -6 -2 -5 -13z"/>
<path d="M1178 4383 c7 -3 16 -2 19 1 4 3 -2 6 -13 5 -11 0 -14 -3 -6 -6z"/>
<path d="M1019 4367 c15 -19 41 -23 41 -7 0 6 -4 10 -9 10 -5 0 -18 3 -28 7
-16 6 -16 5 -4 -10z"/>
<path d="M1220 4365 c-8 -9 -8 -15 -2 -15 12 0 26 19 19 26 -2 2 -10 -2 -17
-11z"/>
<path d="M1260 4344 c0 -13 3 -14 14 -5 10 9 21 7 44 -6 24 -14 34 -15 43 -6
9 9 2 14 -27 22 -54 15 -74 14 -74 -5z"/>
<path d="M2131 4346 c-8 -9 -11 -19 -7 -23 9 -9 29 13 24 27 -2 8 -8 7 -17 -4z"/>
<path d="M960 4330 c0 -5 7 -10 15 -10 8 0 15 5 15 10 0 6 -7 10 -15 10 -8 0
-15 -4 -15 -10z"/>
<path d="M1080 4331 c0 -6 8 -11 17 -11 9 0 26 -8 37 -17 20 -18 20 -18 5 7
-16 25 -59 40 -59 21z"/>
<path d="M1160 4310 c0 -5 7 -10 15 -10 8 0 15 5 15 10 0 6 -7 10 -15 10 -8 0
-15 -4 -15 -10z"/>
<path d="M1210 4309 c0 -5 5 -7 10 -4 6 3 10 8 10 11 0 2 -4 4 -10 4 -5 0 -10
-5 -10 -11z"/>
<path d="M1403 4313 c-7 -3 -13 -11 -13 -19 0 -9 4 -13 9 -9 5 3 13 0 16 -5 5
-8 11 -7 18 2 7 7 11 11 9 9 -6 -11 34 -41 55 -41 12 0 23 -5 23 -11 0 -21 45
-4 48 19 3 18 -2 22 -25 23 -15 1 -34 1 -40 0 -7 -1 -13 2 -13 7 0 15 -66 34
-87 25z"/>
<path d="M406 4254 c-9 -24 -7 -27 9 -10 17 17 19 26 6 26 -5 0 -12 -7 -15
-16z"/>
<path d="M445 4230 c3 -5 8 -10 11 -10 2 0 4 5 4 10 0 6 -5 10 -11 10 -5 0 -7
-4 -4 -10z"/>
<path d="M1590 4230 c0 -17 20 -50 30 -50 16 0 6 41 -12 51 -12 7 -18 6 -18
-1z"/>
<path d="M1655 4220 c-3 -5 -1 -10 4 -10 6 0 11 5 11 10 0 6 -2 10 -4 10 -3 0
-8 -4 -11 -10z"/>
<path d="M418 4213 c7 -3 16 -2 19 1 4 3 -2 6 -13 5 -11 0 -14 -3 -6 -6z"/>
<path d="M400 4171 c0 -14 6 -17 25 -13 14 2 25 10 25 16 0 6 -11 13 -25 14
-18 1 -25 -3 -25 -17z"/>
<path d="M486 4162 c13 -12 95 -34 102 -28 3 3 -2 6 -11 6 -9 0 -17 7 -17 15
0 11 -11 15 -42 15 -23 0 -38 -4 -32 -8z"/>
<path d="M703 4110 c19 -16 39 -30 43 -30 5 0 1 5 -8 11 -10 5 -18 19 -18 29
0 15 -7 20 -25 20 -26 0 -25 0 8 -30z"/>
<path d="M1185 4100 c3 -5 8 -10 11 -10 2 0 4 5 4 10 0 6 -5 10 -11 10 -5 0
-7 -4 -4 -10z"/>
<path d="M2056 4095 c-28 -28 -8 -48 43 -42 25 2 41 2 34 0 -19 -7 -4 -31 32
-53 42 -26 106 -27 129 -2 15 18 14 21 -15 52 -30 31 -34 32 -90 27 -48 -4
-63 -2 -83 14 -29 23 -31 23 -50 4z"/>
<path d="M600 4014 c35 -44 60 -58 60 -33 0 15 -22 35 -50 44 -23 7 -24 7 -10
-11z"/>
<path d="M1530 4006 c0 -2 7 -6 15 -10 8 -3 15 -1 15 4 0 6 -7 10 -15 10 -8 0
-15 -2 -15 -4z"/>
<path d="M1870 3794 c0 -8 5 -12 10 -9 6 3 10 10 10 16 0 5 -4 9 -10 9 -5 0
-10 -7 -10 -16z"/>
<path d="M1836 3745 c-3 -9 0 -15 9 -15 8 0 15 7 15 15 0 8 -4 15 -9 15 -5 0
-11 -7 -15 -15z"/>
<path d="M3772 3585 c-10 -22 -9 -25 14 -31 15 -4 30 -2 37 6 10 10 8 12 -6 7
-10 -4 -16 -3 -13 1 2 4 -1 15 -8 24 -12 16 -14 16 -24 -7z"/>
<path d="M3760 3474 c-18 -46 -13 -64 18 -64 l28 0 -10 45 c-12 51 -22 56 -36
19z"/>
<path d="M3836 3423 c-6 -14 -5 -15 5 -6 7 7 10 15 7 18 -3 3 -9 -2 -12 -12z"/>
<path d="M3837 3368 c-8 -30 -5 -30 16 -2 14 19 15 24 4 24 -8 0 -17 -10 -20
-22z"/>
<path d="M3815 3300 c-3 -5 -1 -18 4 -27 9 -16 10 -14 11 10 0 28 -5 34 -15
17z"/>
<path d="M1747 3210 c-22 -26 -33 -70 -17 -70 7 0 10 7 6 15 -3 8 -2 15 2 15
7 0 34 51 29 56 -2 2 -11 -5 -20 -16z"/>
<path d="M7 1173 c-4 -3 -7 -269 -7 -590 l0 -583 83 0 c77 0 85 2 95 23 l11
22 0 -23 c1 -30 31 -26 47 6 15 30 55 72 68 72 15 1 60 39 53 46 -5 5 -121
-53 -205 -103 -24 -14 -46 -23 -49 -20 -3 3 4 25 15 49 11 24 23 61 26 83 7
39 4 60 -29 255 -9 52 -17 105 -17 118 0 12 -4 25 -9 28 -5 3 -9 20 -9 39 0
19 -5 37 -10 40 -6 3 -10 19 -10 34 0 16 -7 48 -17 72 -13 35 -16 83 -17 241
-1 109 -4 198 -7 198 -3 0 -9 -3 -12 -7z"/>
<path d="M560 210 c0 -5 -19 -11 -42 -11 -30 -1 -20 -4 32 -10 41 -4 78 -5 82
-3 5 3 8 -3 8 -12 0 -10 3 -15 6 -11 4 3 3 14 -1 24 -5 10 -8 21 -7 24 0 3
-17 6 -39 7 -22 2 -39 -2 -39 -8z"/>
</g>
</svg>
